<?xml version="1.0" encoding="UTF-8" standalone="no"?>
<svg
   id="question-circle"
   viewBox="0 0 24 24"
   version="1.1"
   sodipodi:docname="question-circle.svg"
   inkscape:version="1.4.3 (0d15f75, 2025-12-25)"
   xmlns:inkscape="http://www.inkscape.org/namespaces/inkscape"
   xmlns:sodipodi="http://sodipodi.sourceforge.net/DTD/sodipodi-0.dtd"
   xmlns="http://www.w3.org/2000/svg"
   xmlns:svg="http://www.w3.org/2000/svg">
  <defs
     id="defs1" />
  <sodipodi:namedview
     id="namedview1"
     pagecolor="#ffffff"
     bordercolor="#666666"
     borderopacity="1.0"
     inkscape:showpageshadow="2"
     inkscape:pageopacity="0.0"
     inkscape:pagecheckerboard="0"
     inkscape:deskcolor="#d1d1d1"
     inkscape:zoom="17.333333"
     inkscape:cx="12"
     inkscape:cy="11.855769"
     inkscape:current-layer="question-circle" />
  <path
     d="M 11.999999,1e-7 C 5.3866667,1e-7 1.428571e-8,5.3866668 1.428571e-8,12 1.428571e-8,18.613333 5.3866667,24 11.999999,24 18.613333,24 24,18.613333 24,12 24,5.3866668 18.613333,1e-7 11.999999,1e-7 Z m 3.066668,6.2666666 c 0.813332,0.8133334 1.266666,1.9066667 1.266666,3.0666666 0,1.1599997 -0.453334,2.2399997 -1.266666,3.0666667 -0.573334,0.573333 -1.293334,0.973333 -2.066668,1.146667 v 0.453332 c 0,0.546668 -0.453332,1 -1,1 -0.546666,0 -1,-0.453332 -1,-1 v -1.333332 c 0,-0.546667 0.453334,-1 1,-1 0.626668,0 1.213334,-0.24 1.653334,-0.68 0.44,-0.44 0.68,-1.026667 0.68,-1.6533337 0,-0.6266666 -0.24,-1.2133333 -0.68,-1.6533333 -0.88,-0.8799999 -2.413334,-0.8799999 -3.293333,0 C 9.9199995,8.12 9.6799995,8.7066667 9.6799995,9.3333333 9.6799995,9.88 9.226667,10.333333 8.6799996,10.333333 8.1333333,10.333333 7.68,9.88 7.68,9.3333333 c 0,-1.1599999 0.4533333,-2.24 1.266667,-3.0666666 1.64,-1.64 4.493332,-1.64 6.133332,0 z M 13.333333,17.666667 C 13.333333,18.4 12.733333,19 11.999999,19 c -0.733332,0 -1.333332,-0.6 -1.333332,-1.333333 0,-0.733334 0.6,-1.333334 1.333332,-1.333334 0.733334,0 1.333334,0.6 1.333334,1.333334 z"
     id="path1"
     style="stroke-width:1" />
</svg>
